<svg width="160" height="160" viewBox="0 0 160 160" fill="none" xmlns="http://www.w3.org/2000/svg">
<g clip-path="url(#clip0_85_510)">
<rect width="160" height="160" fill="white"/>
<mask id="mask0_85_510" style="mask-type:luminance" maskUnits="userSpaceOnUse" x="0" y="0" width="160" height="160">
<path d="M0.177734 160H159.821V-1.73859e-05H0.177734V160Z" fill="white"/>
</mask>
<g mask="url(#mask0_85_510)">
<path d="M80.0688 156.017C38.0799 156.017 4.04091 121.977 4.04091 79.9877C4.04091 37.9995 38.0799 3.95901 80.0688 3.95901C122.056 3.95901 156.097 37.9995 156.097 79.9877C156.097 121.977 122.056 156.017 80.0688 156.017ZM-33.5195 193.264H192.403V-33.8216H-33.5195V193.264Z" fill="#E30613"/>
<path d="M22.0357 92.0489V67.9279C22.0357 67.9279 27.7218 66.6093 27.7218 80.0274C27.7218 93.4441 22.0357 92.0489 22.0357 92.0489ZM24.9174 59.8616H10.2734C10.2734 59.8616 11.5192 68.5479 11.5192 80.0274C11.5192 91.5056 10.2734 100.115 10.2734 100.115H24.9174C29.8252 100.115 38.2384 96.8573 38.2384 80.0274C38.2384 63.1968 29.9033 59.8616 24.9174 59.8616Z" fill="#1D1D1B"/>
<path d="M50.7792 81.5007L53.2722 67.9279L55.7644 81.5007H50.7792ZM70.7213 100.115C70.7213 100.115 67.4494 89.6443 65.502 80.0274C63.5568 70.4194 62.5423 59.8616 62.5423 59.8616H44.0021C44.0021 59.8616 42.9897 70.4098 41.0423 80.0274C39.095 89.6443 35.9004 100.115 35.9004 100.115H48.8319C48.8319 100.115 48.3651 98.3306 48.8319 94.8408C49.2986 91.3509 50.1564 89.567 50.1564 89.567H56.388C56.388 89.567 57.401 91.5836 57.7125 94.9188C58.0335 98.3578 57.7125 100.115 57.7125 100.115H70.7213Z" fill="#1D1D1B"/>
<path d="M81.3149 77.1573V66.6864C81.3149 66.6864 85.7544 66.6098 85.7544 71.8828C85.7544 77.1573 81.3149 77.1573 81.3149 77.1573ZM99.9324 100.114C99.9324 100.114 97.6706 95.2005 94.6358 90.0321C91.6754 84.9902 89.9621 82.431 89.9621 82.431C89.9621 82.431 96.9727 80.3372 96.9727 71.1849C96.9727 61.8264 90.1175 59.8614 87.5472 59.8614H69.5526C69.5526 59.8614 70.721 67.2297 70.721 80.0272C70.721 92.8247 69.3965 100.114 69.3965 100.114H82.5613C82.5613 100.114 81.7824 97.7097 81.3149 93.3673C80.8474 89.0242 81.3149 86.4642 81.3149 86.4642C81.3149 86.4642 83.1849 88.9461 84.586 93.29C85.9886 97.6324 85.7544 100.114 85.7544 100.114H99.9324Z" fill="#1D1D1B"/>
<path d="M96.3496 59.8616V69.0919C96.3496 69.0919 98.7638 67.9279 103.281 67.9279C103.281 67.9279 103.669 75.2072 103.281 82.1213C102.893 89.1017 102.036 100.115 102.036 100.115H114.966C114.966 100.115 114.109 89.0244 113.798 82.1213C113.487 75.2183 113.798 67.9279 113.798 67.9279C113.798 67.9279 117.226 67.7726 120.575 69.0919V59.8616H96.3496Z" fill="#1D1D1B"/>
<path d="M131.794 59.8616H120.031C120.031 59.8616 125.251 69.7892 127.509 80.0267C129.769 90.265 128.444 100.115 128.444 100.115H141.453C141.453 100.115 140.051 90.1877 142.31 80.0267C144.57 69.8665 149.866 59.8616 149.866 59.8616H138.104L134.91 71.5731L131.794 59.8616Z" fill="#1D1D1B"/>
<path d="M96.3496 59.8616V69.0919C96.3496 69.0919 98.7638 67.9279 103.281 67.9279C103.281 67.9279 103.669 75.2072 103.281 82.1213C102.893 89.1017 102.036 100.115 102.036 100.115H114.966C114.966 100.115 114.109 89.0244 113.798 82.1213C113.487 75.2183 113.798 67.9279 113.798 67.9279C113.798 67.9279 117.226 67.7726 120.575 69.0919V59.8616H96.3496Z" fill="#1D1D1B"/>
<path d="M131.794 59.8616H120.031C120.031 59.8616 125.251 69.7892 127.509 80.0267C129.769 90.265 128.444 100.115 128.444 100.115H141.453C141.453 100.115 140.051 90.1877 142.31 80.0267C144.57 69.8665 149.866 59.8616 149.866 59.8616H138.104L134.91 71.5731L131.794 59.8616Z" fill="#1D1D1B"/>
</g>
</g>
<defs>
<clipPath id="clip0_85_510">
<rect width="160" height="160" fill="white"/>
</clipPath>
</defs>
</svg>
