<svg width="44" height="44" viewBox="0 0 44 44" fill="none" xmlns="http://www.w3.org/2000/svg">
<path d="M35.1917 24.8278C33.5657 22.7849 31.5854 21.555 29.2506 21.1381L22.4966 24.0773C24.9147 24.0773 26.8533 24.7027 28.3126 25.9535C29.7718 27.2042 30.5014 28.8927 30.5014 31.019C30.5014 33.1036 29.8135 34.7296 28.4376 35.8969C27.0618 37.0643 25.1648 37.648 22.7467 37.648H12.748V43.464H23.3721C26.2488 43.464 28.7712 42.9637 30.9391 41.9631C33.1071 40.9208 34.7539 39.5241 35.8796 37.7731C37.047 35.9803 37.6307 33.9791 37.6307 31.7695C37.6307 29.1846 36.8177 26.8707 35.1917 24.8278Z" fill="white"/>
<path d="M36.2702 12.9454C36.2702 15.1551 35.7491 17.2397 34.7068 19.1992C33.6645 21.1587 31.9968 22.7638 29.7038 24.0146C27.4107 25.2236 24.4715 25.8282 20.886 25.8282H13.0062L13.0062 43.4638H9.36028C7.43649 43.4638 5.87695 41.9042 5.87695 39.9804L5.87695 0.874233C5.87695 0.391475 6.26831 0.00012207 6.75106 0.00012207L20.886 0.00012207C24.2213 0.00012207 27.0355 0.583806 29.3286 1.75117C31.6633 2.87685 33.3935 4.41945 34.5192 6.37896C35.6865 8.33847 36.2702 10.5273 36.2702 12.9454ZM20.886 20.0122C23.5959 20.0122 25.618 19.4076 26.9521 18.1986C28.2863 16.9478 28.9533 15.1968 28.9533 12.9454C28.9533 8.19255 26.2642 5.81612 20.886 5.81612L13.0062 5.81612V20.0122H20.886Z" fill="white"/>
<path d="M36.7305 20.2419C35.4428 22.5886 33.4171 24.4333 30.8018 25.8162L30.7881 25.824L30.7734 25.8308C28.0494 27.2232 24.7103 27.8454 20.8877 27.8455H15.2979L15.0381 27.5935L15.0381 43.4773H12.748L12.748 25.6306H13.0137L13.0078 25.6248H20.8877C24.473 25.6247 27.4121 25.039 29.7051 23.8669C31.9981 22.6545 33.6657 21.0985 34.708 19.199L36.7305 20.2419Z" fill="#1E1E1E"/>
</svg>
