<svg width="160" height="160" viewBox="0 0 160 160" fill="none" xmlns="http://www.w3.org/2000/svg">
<rect width="160" height="160" fill="#6A00FF"/>
<circle cx="59.7626" cy="89.6651" r="11.7202" transform="rotate(30 59.7626 89.6651)" fill="white"/>
<path d="M93.3846 109.076C89.6902 115.475 84.1813 120.635 77.5545 123.903C70.9278 127.171 63.4808 128.4 56.1552 127.436C48.8297 126.471 41.9547 123.356 36.3995 118.485C30.8444 113.613 26.8586 107.203 24.9463 100.066C23.0339 92.9292 23.2809 85.3854 25.6559 78.3888C28.0309 71.3922 32.4274 65.2569 38.2893 60.759C44.1511 56.261 51.2152 53.6023 58.5881 53.119C65.961 52.6358 73.3117 54.3497 79.7105 58.0441" stroke="white" stroke-width="11.7202"/>
<path d="M80.0622 101.385C86.461 105.08 93.8117 106.794 101.185 106.31C108.558 105.827 115.622 103.168 121.483 98.6704C127.345 94.1724 131.742 88.0372 134.117 81.0406C136.492 74.0439 136.739 66.5002 134.826 59.3632C132.914 52.2262 128.928 45.8166 123.373 40.9448C117.818 36.0731 110.943 32.9581 103.617 31.9936C96.2919 31.0292 88.8449 32.2587 82.2182 35.5267C75.5914 38.7946 70.0825 43.9543 66.3881 50.3531" stroke="white" stroke-width="11.7202"/>
</svg>
