<?xml version="1.0" encoding="UTF-8" standalone="no"?>
<!DOCTYPE svg PUBLIC "-//W3C//DTD SVG 1.1//EN" "http://www.w3.org/Graphics/SVG/1.1/DTD/svg11.dtd">
<svg width="100%" height="100%" viewBox="0 0 44 44" version="1.1" xmlns="http://www.w3.org/2000/svg" xmlns:xlink="http://www.w3.org/1999/xlink" xml:space="preserve" xmlns:serif="http://www.serif.com/" style="fill-rule:evenodd;clip-rule:evenodd;stroke-linejoin:round;stroke-miterlimit:2;">
    <path d="M34.052,23.584C34.45,23.958 34.83,24.373 35.192,24.828C36.818,26.871 37.631,29.185 37.631,31.77C37.631,33.979 37.047,35.98 35.88,37.773C34.754,39.524 33.107,40.921 30.939,41.963C28.771,42.964 26.249,43.464 23.372,43.464L15.038,43.464L15.038,37.648L22.747,37.648C25.165,37.648 27.062,37.064 28.438,35.897C29.814,34.73 30.501,33.104 30.501,31.019C30.501,29.243 29.993,27.773 28.975,26.608C29.601,26.382 30.201,26.124 30.773,25.831L30.788,25.824L30.802,25.816C32.018,25.173 33.106,24.43 34.052,23.584Z" style="fill:white;"/>
    <path d="M36.27,12.945C36.27,15.155 35.749,17.24 34.707,19.199C33.664,21.159 31.997,22.764 29.704,24.015C27.411,25.224 24.471,25.828 20.886,25.828L13.006,25.828L13.006,43.464L9.36,43.464C7.436,43.464 5.877,41.904 5.877,39.98L5.877,0.874C5.877,0.391 6.268,0 6.751,0L20.886,0C24.221,0 27.035,0.584 29.329,1.751C31.663,2.877 33.394,4.419 34.519,6.379C35.687,8.338 36.27,10.527 36.27,12.945ZM20.886,20.012C23.596,20.012 25.618,19.408 26.952,18.199C28.286,16.948 28.953,15.197 28.953,12.945C28.953,8.193 26.264,5.816 20.886,5.816L13.006,5.816L13.006,20.012L20.886,20.012Z" style="fill:white;fill-rule:nonzero;"/>
</svg>
